<svg id="deposit" xmlns="http://www.w3.org/2000/svg" viewBox="0 0 347.11 346.84"><defs><style>.cls-1{fill:#7e7e7e;}.cls-2{fill:#444545;opacity:0.36;}</style></defs><polygon class="cls-1" points="92.29 192.38 179.39 312.28 266.49 192.38 179.39 242.75 92.29 192.38"/><polygon class="cls-1" points="92.29 176.16 178.53 226.29 266.49 176.16 179.39 34.4 92.29 176.16"/><path class="cls-1" d="M174.9,1.6a172.92,172.92,0,0,0-74.66,16.83A52.11,52.11,0,0,0,25.3,87.07a172.49,172.49,0,0,0-24,88c0,95.78,77.71,173.42,173.56,173.42S348.45,270.8,348.45,175,270.75,1.6,174.9,1.6ZM22.58,61.29A48,48,0,1,1,27.78,83,48,48,0,0,1,22.58,61.29ZM175,335.1A160.14,160.14,0,0,1,34.27,98.65a52.11,52.11,0,0,0,76.66-70.37A160.1,160.1,0,1,1,175,335.1Z" transform="translate(-1.34 -1.6)"/><path class="cls-1" d="M97.4,58.82h-24V35.38a3.06,3.06,0,0,0-2.69-2.66H70a3.08,3.08,0,0,0-2.69,2.68V58.82H41.8A3.12,3.12,0,0,0,39,61.56v.87a3.11,3.11,0,0,0,2.8,2.74H67.29V87.06a3.07,3.07,0,0,0,2.53,2.79h1.05a3,3,0,0,0,2.52-2.75V65.17H97.28a3.18,3.18,0,0,0,3-3v-.34A3.17,3.17,0,0,0,97.4,58.82Z" transform="translate(-1.34 -1.6)"/><polygon class="cls-2" points="92.29 176.16 178.83 158.93 266.49 176.16 178.53 226.29 92.29 176.16"/><polygon class="cls-2" points="179.39 34.4 179.39 224.7 266.49 176.16 179.39 34.4"/><polygon class="cls-2" points="179.39 242.75 179.39 312.28 266.49 192.38 179.39 242.75"/></svg>