<svg id="Layer_5" data-name="Layer 5" xmlns="http://www.w3.org/2000/svg" viewBox="0 0 347.11 346.84"><defs><style>.cls-1{fill:#7e7e7e;}.cls-2{fill:none;}.cls-3{fill:#444545;opacity:0.36;}</style></defs><polygon class="cls-1" points="92.29 192.38 179.39 312.28 266.49 192.38 179.39 242.75 92.29 192.38"/><polygon class="cls-1" points="92.29 176.16 178.53 226.29 266.49 176.16 179.39 34.4 92.29 176.16"/><path class="cls-2" d="M70.59,113.41A51.92,51.92,0,0,1,34.27,98.65a160,160,0,1,0,76.66-70.37,52.12,52.12,0,0,1-40.34,85.13Z" transform="translate(-1.34 -1.6)"/><path class="cls-1" d="M22.58,61.29A48,48,0,0,1,95.93,20.55c1.42-.73,2.86-1.43,4.31-2.12A52.11,52.11,0,0,0,25.3,87.07c.81-1.36,1.63-2.72,2.48-4.06A47.76,47.76,0,0,1,22.58,61.29Z" transform="translate(-1.34 -1.6)"/><path class="cls-1" d="M174.9,1.6a172.92,172.92,0,0,0-74.66,16.83c-1.45.69-2.89,1.39-4.31,2.12A48,48,0,1,1,36.36,94.94c-.71,1.23-1.41,2.46-2.09,3.71a52.11,52.11,0,0,0,76.66-70.37A160,160,0,1,1,34.27,98.65a51.91,51.91,0,0,1-9-11.58,172.49,172.49,0,0,0-24,88c0,95.78,77.71,173.42,173.56,173.42S348.45,270.8,348.45,175,270.75,1.6,174.9,1.6Z" transform="translate(-1.34 -1.6)"/><path class="cls-1" d="M34.27,98.65c.68-1.25,1.38-2.48,2.09-3.71A48.09,48.09,0,0,1,27.78,83c-.85,1.34-1.67,2.7-2.48,4.06A51.91,51.91,0,0,0,34.27,98.65Z" transform="translate(-1.34 -1.6)"/><path class="cls-1" d="M97.4,58.82h-24V35.38a3.06,3.06,0,0,0-2.69-2.66H70a3.08,3.08,0,0,0-2.69,2.68V58.82H41.8A3.12,3.12,0,0,0,39,61.56v.87a3.11,3.11,0,0,0,2.8,2.74H67.29V87.06a3.07,3.07,0,0,0,2.53,2.79h1.05a3,3,0,0,0,2.52-2.75V65.17H97.28a3.18,3.18,0,0,0,3-3v-.34A3.17,3.17,0,0,0,97.4,58.82Z" transform="translate(-1.34 -1.6)"/><polygon class="cls-3" points="92.29 176.16 178.83 158.93 266.49 176.16 178.53 226.29 92.29 176.16"/><polygon class="cls-3" points="179.39 34.4 179.39 224.7 266.49 176.16 179.39 34.4"/><polygon class="cls-3" points="179.39 242.75 179.39 312.28 266.49 192.38 179.39 242.75"/></svg>