<svg xmlns="http://www.w3.org/2000/svg" viewBox="0 0 350 350"><defs><style>.cls-1{fill:#7d7d7d;}.cls-2{fill:none;}</style></defs><g id="Layer_4" data-name="Layer 4"><path class="cls-1" d="M175,136a39,39,0,1,0,39,39A39,39,0,0,0,175,136Zm.5,72a33,33,0,1,1,33-33A33,33,0,0,1,175.5,208Z"/><path class="cls-1" d="M180.57,171.89h11.94A17.8,17.8,0,0,0,178,157.44v11.93A6.37,6.37,0,0,1,180.57,171.89Z"/><path class="cls-1" d="M172,169.35V157.44a17.78,17.78,0,0,0-14.53,14.45h11.94A6.4,6.4,0,0,1,172,169.35Z"/><path class="cls-1" d="M178,180.56v11.92a17.76,17.76,0,0,0,14.51-14.59H180.64A6.42,6.42,0,0,1,178,180.56Z"/><path class="cls-1" d="M169.36,177.89H157.47A17.78,17.78,0,0,0,172,192.49V180.58A6.39,6.39,0,0,1,169.36,177.89Z"/><path class="cls-1" d="M178,157.44V140.63h-6v16.81a17.2,17.2,0,0,1,3-.27A18.74,18.74,0,0,1,178,157.44Z"/><path class="cls-1" d="M172,192.49v16.66h6V192.48a17.67,17.67,0,0,1-3,.27A18.25,18.25,0,0,1,172,192.49Z"/><path class="cls-1" d="M175,181.32a6.35,6.35,0,0,1-3-.74v11.91a18.25,18.25,0,0,0,3,.26,17.67,17.67,0,0,0,3-.27V180.56A6.41,6.41,0,0,1,175,181.32Z"/><path class="cls-1" d="M175,168.6a6.3,6.3,0,0,1,3,.77V157.44a18.74,18.74,0,0,0-3-.27,17.2,17.2,0,0,0-3,.27v11.91A6.24,6.24,0,0,1,175,168.6Z"/><path class="cls-1" d="M206.19,189.42,191.67,181a18.54,18.54,0,0,1-1.29,2.8,17.37,17.37,0,0,1-1.7,2.41l14.51,8.37Z"/><path class="cls-1" d="M161.34,163.53l-14.49-8.37-3,5.2,14.47,8.35a17.76,17.76,0,0,1,1.24-2.66A17.55,17.55,0,0,1,161.34,163.53Z"/><path class="cls-1" d="M168.64,175a6.37,6.37,0,0,1,.79-3.07H157.49a18.25,18.25,0,0,0-.28,3.07,17.64,17.64,0,0,0,.26,2.93h11.89A6.29,6.29,0,0,1,168.64,175Z"/><path class="cls-1" d="M192.51,171.89H180.57a6.37,6.37,0,0,1,.79,3.07,6.29,6.29,0,0,1-.72,2.93h11.89a17.64,17.64,0,0,0,.26-2.93A18.25,18.25,0,0,0,192.51,171.89Z"/><path class="cls-1" d="M146.85,194.69l14.52-8.38a18.37,18.37,0,0,1-1.78-2.52,17.87,17.87,0,0,1-1.24-2.67l-14.5,8.37Z"/><path class="cls-1" d="M191.7,168.8l14.49-8.37-3-5.2-14.47,8.36a18.2,18.2,0,0,1,1.69,2.41A17.68,17.68,0,0,1,191.7,168.8Z"/><path class="cls-1" d="M38.94,63.17l90.8-2.72S132,77,151,78.57s34.87,1.81,34.87,1.81v35.77H134.72s-4.53-1.13-4.53,3.85.45,111.17.45,111.17-2.26,7,5.44,7h49.81v38H166.42s-18.57-.91-27.17,9l-8.61,10H69.74l-20.83-2h-10V267.62l37.81,2.27s6.12,2.26,6.12-5.66-.23-79.7-.23-79.7V92.83s1.13-5.89-7.92-5.21-35.78,1.81-35.78,1.81Z"/><path class="cls-1" d="M161.13,78.11H190V59.21h-7.81s-1.47-4.64-7.25-4.19-6.79,4.19-6.79,4.19h-7Z"/><path class="cls-1" d="M161.05,278.52v18.42h7.13a6.39,6.39,0,0,0,6.11,4.08c4.67-.09,5.78-.09,7.05-1.95l1.27-1.87,7-.51V278.52Z"/><path class="cls-1" d="M34,61.25l27.89-.17V43h-8s.34-4.58-7-4-7.22,3.82-7.22,3.82L34,43Z"/><path class="cls-1" d="M60.51,294.91l-27.89.17v18.08h8s-.34,4.59,7,4,7.22-3.82,7.22-3.82l5.64-.17Z"/><ellipse class="cls-1" cx="204.51" cy="23.78" rx="2.77" ry="2.71"/><ellipse class="cls-1" cx="149.89" cy="23.1" rx="2.77" ry="2.71"/><ellipse class="cls-1" cx="98.09" cy="41.42" rx="2.77" ry="2.71"/><ellipse class="cls-1" cx="254.94" cy="43.5" rx="2.77" ry="2.71"/><ellipse class="cls-1" cx="295.58" cy="79.75" rx="2.77" ry="2.71"/><ellipse class="cls-1" cx="320.94" cy="126.15" rx="2.77" ry="2.71" transform="translate(-9.37 27.09) rotate(-4.76)"/><ellipse class="cls-1" cx="328.58" cy="178.21" rx="2.77" ry="2.71"/><ellipse class="cls-1" cx="318.28" cy="231.26" rx="2.77" ry="2.71"/><ellipse class="cls-1" cx="292.11" cy="274.35" rx="2.77" ry="2.71"/><ellipse class="cls-1" cx="251.55" cy="308.01" rx="2.77" ry="2.71"/><ellipse class="cls-1" cx="203.21" cy="325.9" rx="2.77" ry="2.71"/><ellipse class="cls-1" cx="151.08" cy="326.96" rx="2.77" ry="2.71"/><ellipse class="cls-1" cx="100.9" cy="310.66" rx="2.77" ry="2.71"/><ellipse class="cls-1" cx="31.25" cy="231.14" rx="2.77" ry="2.71"/><ellipse class="cls-1" cx="20.94" cy="177.85" rx="2.77" ry="2.71" transform="translate(-13.58 2.13) rotate(-4.4)"/><ellipse class="cls-1" cx="29.21" cy="125.04" rx="2.77" ry="2.71"/><path class="cls-1" d="M175,119.51a55.24,55.24,0,0,0-41.7,19l-.06,3.67a53.15,53.15,0,1,1-.52,65.05v3.45A55.38,55.38,0,1,0,175,119.51Z"/><path class="cls-1" d="M43,175.5a131.49,131.49,0,0,1,31.3-85.34l-24,1.28a150.15,150.15,0,0,0,5.85,175.23l24.21.82A131.55,131.55,0,0,1,43,175.5Z"/><path class="cls-1" d="M175,24.9A149.48,149.48,0,0,0,78.37,60.16l33.79-.76A132,132,0,1,1,123.38,297l-35.52.2A150.1,150.1,0,1,0,175,24.9Z"/><path class="cls-1" d="M187.64,175.89l-1.75.26v3.51s-1.51,1.78-2.8,3.17l113.57,45.72,3.4-7.81L188,178.56Z"/><polygon class="cls-1" points="185.89 174.72 306.17 134.04 304.02 126.15 274.25 136.11 185.45 168.13 185.89 172.75 185.89 174.72"/><path class="cls-1" d="M177.43,133.41V83L173,88.9v44.82A22.31,22.31,0,0,1,177.43,133.41Z"/><path class="cls-1" d="M173,216.34v55.3h4.43v-55.1A11.76,11.76,0,0,1,173,216.34Z"/><polygon class="cls-2" points="130.53 0 206.38 0 206.38 4.75 133.59 4.75 130.53 0"/><rect class="cls-2" y="70.98" width="2.6" height="19.18"/><polygon class="cls-2" points="135.28 350 132.74 341.09 203.21 341.09 203.21 350 135.28 350"/><rect class="cls-2" x="343.47" y="144.45" width="6.53" height="44.49"/></g></svg>